<svg width="2480" height="680" xmlns="http://www.w3.org/2000/svg" xmlns:xlink="http://www.w3.org/1999/xlink"><defs><filter x="-119.8%" y="-115%" width="339.6%" height="330%" filterUnits="objectBoundingBox" id="a"><feOffset dy="32" in="SourceAlpha" result="shadowOffsetOuter1"/><feGaussianBlur stdDeviation="44" in="shadowOffsetOuter1" result="shadowBlurOuter1"/><feColorMatrix values="0 0 0 0 0.168627451 0 0 0 0 0.168627451 0 0 0 0 0.321568627 0 0 0 0.24 0" in="shadowBlurOuter1" result="shadowMatrixOuter1"/><feMerge><feMergeNode in="shadowMatrixOuter1"/><feMergeNode in="SourceGraphic"/></feMerge></filter><linearGradient x1="27.515%" y1="0%" x2="59.658%" y2="100%" id="c"><stop stop-color="#FFF" offset="0%"/><stop stop-color="#F0F4FD" offset="100%"/></linearGradient><path id="b" d="M114.353 200L0 133.803 48.706 0l115.059 19.718L192 121.127z"/><linearGradient x1="68.479%" y1="83.682%" x2="3.177%" y2="14.149%" id="d"><stop stop-color="#F0F4FD" offset="0%"/><stop stop-color="#95A1BC" stop-opacity=".48" offset="100%"/></linearGradient><linearGradient x1="47.38%" y1="24.752%" x2="58.769%" y2="81.336%" id="f"><stop stop-color="#95A1BC" stop-opacity=".32" offset="0%"/><stop stop-color="#D9E0F0" stop-opacity=".24" offset="100%"/></linearGradient><filter x="-145.6%" y="-145.6%" width="391.1%" height="391.1%" filterUnits="objectBoundingBox" id="g"><feOffset dy="32" in="SourceAlpha" result="shadowOffsetOuter1"/><feGaussianBlur stdDeviation="44" in="shadowOffsetOuter1" result="shadowBlurOuter1"/><feColorMatrix values="0 0 0 0 0.168627451 0 0 0 0 0.168627451 0 0 0 0 0.321568627 0 0 0 0.24 0" in="shadowBlurOuter1" result="shadowMatrixOuter1"/><feMerge><feMergeNode in="shadowMatrixOuter1"/><feMergeNode in="SourceGraphic"/></feMerge></filter><linearGradient x1="100%" y1="0%" x2="65.061%" y2="86.022%" id="h"><stop stop-color="#FFF" offset="0%"/><stop stop-color="#F0F4FD" offset="100%"/></linearGradient><linearGradient x1="0%" y1="0%" x2="50%" y2="81.394%" id="i"><stop stop-color="#F0F4FD" offset="0%"/><stop stop-color="#D9E0F0" offset="100%"/></linearGradient><linearGradient x1="63.007%" y1="100%" x2="32.685%" y2="72.214%" id="k"><stop stop-color="#B8ABFD" offset="0%"/><stop stop-color="#B8ABFD" stop-opacity="0" offset="100%"/></linearGradient><path d="M531.727 93.5C457.149 298.906 319.185 231.937 176.1 120.634c12.73-6.931-40.062-15.858-158.374-26.782 95.925 37.316 131.185 80.635 105.779 129.958 74.43 26.308 150.77 61.56 219.538 61.69h1.158c76.193-.294 142.986-44.113 187.341-191.648l.184-.352z" id="j"/></defs><g fill="none" fill-rule="evenodd"><g filter="url(#a)" transform="translate(1796 49)"><mask id="e" fill="#fff"><use xlink:href="#b"/></mask><use fill="url(#c)" xlink:href="#b"/><path d="M47-2.654l108.12 93.849L222.96 142 259 74.965l-4.24-44.454-52.293-33.165-40.28-14.818L91.52-21 47-2.654z" fill="url(#d)" mask="url(#e)"/><path d="M196.64 78L-9 136.246l30.387 52.631c28.266 17.31 43.342 26.667 45.226 28.07 1.885 1.404 35.334 1.404 100.347 0L203 172.035 196.64 78z" fill="url(#f)" mask="url(#e)"/><path fill-opacity=".12" fill="#58678C" mask="url(#e)" d="M165.394 15l-9.92 75.972L108 219l92.114-23.214 26.926-51.352 4.96-85.82z"/></g><g filter="url(#g)" transform="rotate(-49 776.317 -244.52)" fill-rule="nonzero"><path fill="url(#h)" d="M79 0v158L0 100.727z"/><path fill="url(#i)" d="M79 158V1l79 99.729z"/></g><use fill="url(#k)" transform="scale(-1 1) rotate(23 -1032.457 -5663.148)" xlink:href="#j"/><circle cx="8" cy="8" r="8" transform="translate(1732 92)" fill="#FFDDF7"/><circle cx="27" cy="27" r="27" transform="translate(1649 138)" fill="#E2DDFE"/></g></svg>