<svg width="360" height="360" xmlns="http://www.w3.org/2000/svg"><path d="M161.932 92.977c3.291 1.978 6.637 3.878 9.85 5.938a8794.197 8794.197 0 0 1 34.95 22.553 6777.597 6777.597 0 0 1 27.264 17.762c2.358 1.543 4.714 3.073 7.203 4.363 7.509 3.888 14.575 8.514 21.703 13.022 3.489 2.206 6.934 4.469 10.556 6.452.927.508 2.46 1.193 2.04.236-.774-1.765.383-1.274 2.169-.146 4.574 2.891 9.724 4.693 13.967 8.216.377.314 1.02.68 1.448.807 5.692 1.689 10.212 5.839 15.266 8.822 3.213 1.897 6.264 4.095 9.366 6.178.763.512 1.542 1.148 1.313 1.601-.18.355-.975.062-1.613-.25-3.772-1.837-7.038-2.23-10.641-3.549-4.07-1.49-7.977-2.289-12.253-4.817-.453-.267-1.057-.506-1.465-.571-4.998-.805-10.106-3.624-14.903-6.894-4.158-2.836-8.852-5.439-12.15-8.75.151-.543 3.34 1.47 1.218-.616-1.05-1.032-2.463-2.084-3.837-3.005-10.703-7.185-21.389-14.39-32.172-21.493-12.808-8.436-25.724-16.759-38.563-25.163-9.865-6.457-19.684-12.962-29.517-19.452-.57-.376-1.374-.805-1.199-1.244zm119.67 82.867c-3.164.309-6.13-1.55-9.447-3.659-8.95-5.692-17.582-11.717-26.725-17.216-4.913-2.955-9.476-6.3-14.178-9.884 1.65-.175 3.28 1.046 4.671 1.931 5.34 3.398 10.628 6.857 15.952 10.273 5.422 3.48 10.62 7.071 16.53 10.116 4.36 2.244 8.911 5.188 13.196 8.439zM220.69 138.36c-16.977-10.223-33.52-20.908-49.292-32.52 4.729 1.47 8.247 5.01 12.414 7.44 4.351 2.537 8.53 5.479 12.647 8.365 4.003 2.805 8.3 5.184 12.336 7.902 4.13 2.783 8.305 5.558 11.895 8.813zm-12.237 3.26c-15.068-8.876-29.033-19-43.552-28.481 15.026 8.897 29.212 18.804 43.552 28.48zm-94.639-60.853c4.836 2.432 9.683 4.736 13.69 8.282-4.904-2.256-9.504-5.003-13.69-8.282zm3.63-10.758c-4.638-2.325-8.578-5.001-12.637-8.09 5.67 2.672 10.313 5.631 12.638 8.09z" fill="#6EB0FC" fill-rule="evenodd"/></svg>