<svg width="360" height="360" xmlns="http://www.w3.org/2000/svg"><path d="M57.833 127.354c.366.292.294.278.53.555-.173.178-.94-.106-.53-.555zm56.409 48.978l-1.008-.659c-.466-.119-.894-.356-1.63-.842.73-.21 2.735 1.249 2.638 1.501zm32.155 3.853c.246.901 1.283.417 1.479 1.533-.178-1.16.851-.16.779.15-.314-.004-.93.573-.699-.044-.24.712-1.171 1.046-1.937 1.43.51-.152.715-.68 1.13-1.168-.364-.093-.635-.446-1.235.134l-.402-.537c.324-.508.31-.906.885-1.498zm6.445 1.852c-1.067.037-1.893-.635-2.88-.872.477-.498 2.097.431 2.88.872zm.501 2.571c-.955.313-.923-.527-1.894-.63l-.34.172c.06.06.105.119-.06.176.456.167 1.03 0 1.45.273-.337.171.084.35-.463.519 2.056-.382 3.046 1.888 4.705 1.105-.808-.252-.676-.208-.885-.71-.994.584-.615-.213-1.41-.02-.144-.118.2-.23.121-.347-.617-.16-.969.078-1.224-.538zm1.307-2.278c-.48.344-.58-.355-.947-.323.48-.383.99.029.947.323zm4.735 3.673c.3.075.657-.004 1.036-.155-.398.651.836.608 1.613.537.112.262-.192.503-.607.743-.727-.523-1.73-.344-2.434-.948.38-.114.27-.244.136-.377.277-.088.45.109.256.2zm1.253.257c.55-.094-.312.778-.528.415.404-.285.262-.488.664-.774.158.09.018.223-.136.359zm-63.771-17.411c1.078.286 3.36 1.23 3.442 2.195-1.105-.949-2.323-1.3-3.442-2.195zm-3.839-2.863c-1.486-1.11 1.405.707 2.278.999-1.076.109-1.985-.78-2.278-.999zm-52.316-46.134c.29-.523-.463-.406-.599-.668 3.184 1.558 5.684 3.05 8.03 4.518l3.472 2.186 3.546 2.336c.482.097.716-.606.947-.672l2.515 1.65c-.893 1.063-.402 1.37-.448 1.97.217.372.62-1.118.838-.746.31-.504.02-.68-.3-.842 3.567 1.675 8.316 4.931 12.908 8.037.392-.377.591.64 1.055-.236.596 2.782 3.335 2.349 4.753 4.205.279-.891.34.428 1.286-.039.299.216.018.268-.211.52 6.822 4.644 13.7 10.004 19.056 12.617.581 1.118 1.496 2.004 3.225 2.458 1.915 1.735 3.836 3.884 6.911 4.001-.27.377-.425.3-.576.203.643 1.048 2.173 2.352 3.586 2.959.264.192.323-.628.915-.992.33.087.475.896.931.495-.128 1.112-.642-.537-1.16.397.273 1.122 1.509 1.286 2.683 1.387 2.487 3.775 7.894 5.72 10.375 7.962.696-.325-.082-.829.471-.677.104.25.343.05.587-.172.24.527-.618.53-.751 1.164 2.58 1.376 3.407 2.361 5.737 2.797-.96.456.163.2-.089.697.928-.096 1.999-.62 2.673.093-.633.646-1.034-.306-1.88-.037 1.446 1.453 2.578 2.848 5.892 2.755.738-.888-.897-.397-.014-1.203 1.429.083 2.317.35 2.51 1.517-.238.17-.33-.095-.593.144.372-.284 1.401.949 2.478-.057-.096 1.067.657 1.19 1.99.208.009.538.441.977-.004 1.617.292-.035.46-.463.9-.207.522-1.259-.081-1.296-1.093-2.04-.567.138-.3.396-.997.91-.273-.629.642-.753.5-1.47-.987-.68-1.643-.109-2.393-1.047 1.631-1.082 2.082.368 2.89.796.517-.156 1.666-.058 1.697-.124.57-.219 0 .426-.499.656 1.203.818 2.156-.006 3.103-.573.075.52-.276.922-1.004 1.31 1.355.428 2.077 2.384 4.526.62-.029.232-.362.528-.103.697 1.178-.695.588 1.101 2.207.08-.484 1.202 1.176 1.13 1.883 1.388l-1.02.883c.795.51 1.733.639 2.594.976.627-1.173-1.458-.637-1.884-1.389 3.127.352 5.248 1.37 8.03 2.407-2.234-.175-3.44-.92-5.43-1.428-.293.726.945.197.485.99 1.513-.128 3.813.736 3.797 1.596 1.464-.57 2.42.457 4.107.79-.076.763-.76.04-1.123.328-.664.609 1.086.052-.03.822-.506-.514-.708-.301-.164-1.062-.93.76-.42-.203-1.329.5-.303-.174.114-.474.431-.755-.64.393-1.365.916-1.313.093-1.18 1.032.491 1.459 1.17 1.021.24.81.868 1.512 1.96 1.568.18.287-.321.686-.855 1.09.648-.406.199 1.454-.682 1.736-.163 1.389.348 1.24.19 2.386-.855.092-.178.313-1.243.608-.518.58-.329 1.037-.482 1.551-.858.828-1.17.31-1.853.71.384.522-1.091.6-.162 1.091-.663.24-1.257.122-1.054.843-.722.72-.819-.077-1.428.38-.73.61-.677 1.084-1.407 1.694-.47.452-.628.156-1.147.727-4.293.083-8.318-.869-11.722-2.486-2.69-1.224-5.43-2.507-8.117-3.887-2.717-1.355-5.418-2.769-7.946-4.342-3.088-1.874-6.43-4.215-9.3-6.42-2.502-1.838-4.722-3.47-6.83-5.017-2.13-1.5-4.142-2.921-6.208-4.378-4.135-2.894-8.41-5.994-14.192-10.212-4.637-3.39-10.735-6.749-15.001-10.695-1.946-1.827.645-.116 1.091.184 4.923 3.236 8.689 6.386 13.914 9.434-.278-.738-1.333-1.587-2.225-1.913 4.848 1.86 9.314 6.076 13.45 9.128-.667.44-.533-.181-1.189-.367.894 1.89 2.905 1.938 4.39 3.738.383-1.313-1.197-.945-1.859-2.127-.149-.168-.483-.27-.229-.582l.413.383c2.228 1.074 4.17 2.556 6.142 3.925 1.97 1.374 3.886 2.722 5.918 3.72-2.272-2.18-4.74-4.9-8.58-6.2.227-.114.455-.232.371-.393-2.587-1.97-5.035-3.846-7.435-5.481 3.665 1.724 6.806 4.284 10.5 6.58-1.061-1.89-3.442-2.634-5.205-4.614-.135-.298-.46.1-.758.4-.855-1.805-2.5-2.805-3.865-3.956-10.49-8.658-20.47-15.076-33-23.806-.522-.359-.936-.817-1.707-1.241-.6-.328-.823-1.282-1.393-1.683-1.448-1.032-3.891-.865-4.003-3.125-.503-.16-1.358-1.024-.773-.866 2.292.636 3.653 2.318 5.13 3.247 6.248 3.851 11.698 8.404 17.158 11.971-1.834-2.191-4.217-3.828-6.61-5.321-2.375-1.518-4.755-2.894-6.691-4.514-1.796-1.512-4.25-3.042-5.817-4.507-7.086-6.959-17.014-9.938-24.157-17.154.837-.325 1.168-.001 1.512-.053-.753-1.219-3.828-1.998-4.608-3.968 1.808 1.229 2.87 1.818 4.911 2.894z" fill="#8A75F5" fill-rule="evenodd"/></svg>