<svg width="360" height="360" xmlns="http://www.w3.org/2000/svg"><path d="M215.55 132.801a9.84 9.84 0 0 1 1.547 1.296c2.497.388 6.734 3.017 8.69 4.445 2.602 1.437 6.923 2.773 9.076 5.516 2.327-.03 3.94 1.969 5.64 2.948 6.496 3.798 12.97 7.457 20.185 12.401 1.777 1.236 4.129 2.04 5.881 3.387.99.763 1.348 1.671 2.947 2.506 2.32 1.205 4.509 2.037 6.634 3.881 1.194 1.053 2.31 2.69 4.545 3.34 1.737 3.017 6.283 3.628 8.088 6.182.752.495 1.348.307 2.055.563 8.236 5.726 16.857 11.263 26.469 17.668-2.257.786-5.335-3.772-8.915-5.398-1.056.08-2.182-.073-3.238.007-.985-.424.534-.54-.003-.8-.475-.747-.543.556-.926.179-.688-.812-1.687-2.085-2.833-1.891-3.402-3.494-10.643-5.702-15.45-10.564-.564-.424-.95.08-1.558-.517-.447-.164-.163-.497.007-.815-1.908.555-2.904-2.332-4.065-1.623-3.447-1.882-7.202-4.684-10.877-7.27-3.04-2.142-7.28-2.842-9.028-6.013-4.716-1.973-11.635-5.521-15.997-9.34-4.954-1.82-9.878-5.893-15.06-7.893-.639-.3-.57-.763-.882-1.118-1.85.002-2.644-1.925-4.197-1.472.711 2.38 5.102 1.364 4.69 3.973.66-.191.7-.188 1.574-.314.246 1.093 1.253.71 2 1.075 5.024 2.368 9.756 6.619 15.07 9.518 1.883 1.026 4.12 1.53 5.067 3.38 1.442-.163 1.92 1.28 2.993 2.008 1.867 1.227 4.704 1.189 5.203 3.19-2.032 1.32-3.694-2.346-6.191-2.523-.837-.25.044-.877-.259-1.248-2.812-.492-4.7-2.383-6.937-2.992-.49-2.226-6.334-2.042-6.563-5.224-2.269.106-4.672-2.01-6.116-3.801-.636-.34-.473.472-1.263.249-1.81-2.579-6.123-2.251-6.955-4.641-.497.268-1.056.184-1.624.011-3.955-3.237-6.545-3.47-10.195-6.273.676-.391 2.488.613 2.873 1.37 1.97-.623 4.55 1.41 6.015 2.396.17-1.368-2.421-2.925-3.425-2.583-4.045-2.494-8.353-4.62-12.46-6.941-.222-2.149-3.475-2.256-4.437-4.325-2.142-.07-3.686-3.895-6.712-2.563-.404-.726-.987-1.433-1.243-2.196-1.844.866-4.567-2.849-6.064-2.699-1.518-1.143-2.559-1.474-2.82-2.68-3.158.012-6.002-3.817-9.178-4.508-.44-1.503-3.876-1.552-3.443-3.391 3.28 1.11 8.644 4.731 11.579 5.823 2.378 3.382 5.792 3.711 9.053 6.322.95.445.136-.821.676-.602.713.386 1.473.38 1.892 1.22-.544.766-.599-.506-1.377-.364.108.694 1.522 1.103 2.13 1.699 3.602-.544 7.26 3.187 10.393 4.754 1.607.817 3.502 1.337 5.312 2.164-3.266-1.86-6.482-3.874-10.765-5.617-3.624-2.975-8.645-4.186-12.159-7.872-2.262-1.633-5.644-3.54-7.452-5.507a84.61 84.61 0 0 1 12.226 5.729c.749.47 1.25-.257 1.874-.386.508.557.573 1.184 1.319 1.695.733.147.207-.904.822-.807 2.402 2.24 4.465 1.506 7.077 3.643.14.714-.646.935-1.054 1.193.799 1.194 1.306.701 1.93-.058.73.607 1.207-.01 1.95.752.056.432.536 1.036-.253 1.192.702.023 1.544.654 2.156.056.693.249.031.754.372 1.064 3.217.358 4.836 1.52 8.444 3.225-1.74-1.8-4.67-2.848-5.883-4.228 3.975.814 7.807 4.25 11.52 5.536 2.695.948 4.942 3.726 7.284 3.79.263.367.468.763.886 1.12.476.223.928.347 1.314.054.344.48.688.96.942 1.448.72.097 1.392-.109 2.066-.25 6.586 4.987 17.252 9.737 24.655 14.836.24-.927-1.08-1.532-1.137-2.384 3.673 1.492 7.717 3.629 9.584 6.41-2.923-.707-4.512-3.846-7.63-4.019.109 1.43 1.587.933 2.754 2.39 3.032 1.087 6.038 4.637 9.594 6.395.693.353.195.936.437 1.375.495-.017.84-.733 1.376-.433 3.82 2.757 8.47 5.951 12.853 8.857 1.355.898 3.558 1.088 3.71 3.007.663.545.996-.43 1.7.327.036.254-.084.56-.31.865 1.361.188 4.447 1.852 4.12 3.588-.854.37-1.866-.155-2.812-.262.662-.19.083-.244.182-.688-.563-.15-1.108-.12-1.512.624.557.86.671.214 1.017.129 1.152 2.078 3.91.711 5.83 1.444-.239.466-.508.703-.808.817 3.597 3.862 11.606 8.128 16.317 12.24-.609 1.293-2.354.413-2.902-.568-4.757-2.774-9.662-5.826-14.984-8.92-1.727-.175-4.379-2-5.073-3.404-1.787.207-3.081-1.18-4.719-2.31-2.574-1.778-6.272-3.055-6.843-5.645l-.485.737c-7.009-4.001-15.451-9.578-23.067-14.322-1.538-.945-2.835-2.501-4.28-3.39-.573-.345-1.402-.192-2.07-.551-.31-.186-.24-.69-.5-.888-.856-.641-2.066-.59-2.83-1.071-.523-.356-.858-1.167-1.446-1.52-3.32-1.974-6.625-4.044-10.209-5.44-4.237-4.164-11.913-6.004-16.692-10.073-2.394-.795-4.46-1.762-6.43-2.814zm32.953 13.208c-.007-.76-1.019-1.284-1.622-.807.412.437.657.94.95 1.432.192-.389.468-.286.672-.625zm7.092 3.652c-.037.272-1.035 1.268-.754 1.92-1.373-.657.238-1.516.754-1.92zm27.664 18.45c-.275.212-.597.291-.888.495.388.862 1.103 2.195 2.201 2.015.275-.318.058-.553.309-.864-.434-.47-1.64-.776-1.566-1.32.058-.132.117-.265-.056-.327zm-8.196 9.593c1.997.276 3.27 2.28 4.956 3.566-.378.802-.949.774-1.437.922-.594-1.281-2.1-3.215-3.77-2.497.599-.543.33-.935.374-1.392-.59-.312-1.037.154-1.753-.612-.444-.204-.646 1.04-1.173.555-.975-.754.843-.354.42-1.05-3.54.162-6.604-3.128-9.362-5.457-.661.296-2.473-.288-2.074-1.372-1.843.132-2.762-1.45-4.194-2.247-4.533-2.555-9.98-4.569-13.82-8.976-.269.028-.498.163-.735.314-.826-2.05-4.355-1.84-5.508-3.939-2.09.193-4.086-2.497-6.258-3.634-1.086-.569-2.303-.712-3.552-1.568-.812-.571-2.012-1.44-3.018-2.002-1.858-1.032-4.374-.969-5.243-3.507-1.623-.303-3.9-1.65-5.336-2.198-.234-.1-.373.237-.543.45-3.697-2.515-8.274-3.564-9.572-6.402 2.278.403 3.716 1.435 6.049 2.69 1.779-1.494 4.53 2.07 6.454 1.315.225.325.647 1.754 1.247.582.967 2.408 6.823 3.427 7.957 5.558 1.257.356 2.664.425 3.114 1.808.997-.262 3.583.956 3.833 2.009 2.028.085 4.663 2.445 7.128 3.968 1.941 1.208 4.037 1.355 4.74 3.436 2.185.347 4.993 1.614 5.507 3.94.827.58.263-.578.862-.491 2.055 1.193 3.154 1.706 3.89 3.136-.067-.272.223-.58-.017-.81.228-.24.836.776 1.52.999-.246.166-.509.219-.814-.007-.476.407.966.455.506.871 1.244-1.163 2.114.955 3.55.768 4.485 3.577 11.188 7.73 16.072 11.274z" fill="#FF88E4" fill-rule="evenodd"/></svg>