<svg width="1056" height="718" xmlns="http://www.w3.org/2000/svg" xmlns:xlink="http://www.w3.org/1999/xlink"><defs><path d="M850.42 325.07c-21.25 58.637-88.022 111.313-173.868-63.848-25.001-51.013-63.733 160.505-155.465 89.02 11.788-6.43-37.101-14.711-146.666-24.845 88.834 34.618 121.487 74.806 97.959 120.563 68.927 24.407 139.623 57.11 203.307 57.231h1.073c70.56-.272 132.415-40.924 173.491-177.794l.17-.327z" id="a"/></defs><g transform="translate(-.42 -.191)" fill="none" fill-rule="evenodd"><use fill-opacity=".24" fill="#E2DDFE" transform="scale(-1 1) rotate(29 0 -1989.864)" xlink:href="#a"/><path stroke="#B8ABFD" stroke-width="2" fill="#FFF" d="M264.421 217.191h448v338h-448z"/><path stroke="#E2DDFE" stroke-width="2" fill="#FFF" d="M334.364 135.965l395.88 98.704-86.608 347.366-395.88-98.704z"/><path d="M390.345 485.247c3.809 2.38 7.683 4.67 11.398 7.146a10199.736 10199.736 0 0 1 40.404 27.098 7869.175 7869.175 0 0 1 31.516 21.339c2.726 1.854 5.449 3.692 8.334 5.25 8.705 4.695 16.873 10.252 25.115 15.671 4.035 2.652 8.017 5.37 12.213 7.761 1.074.613 2.854 1.444 2.386.312-.864-2.09.48-1.494 2.545-.137 5.29 3.475 11.281 5.678 16.167 9.892.435.375 1.18.816 1.678.972 6.63 2.079 11.824 7.035 17.674 10.626 3.718 2.284 7.24 4.92 10.824 7.42.882.616 1.78 1.376 1.499 1.906-.219.414-1.144.056-1.884-.32-4.376-2.223-8.195-2.738-12.385-4.348-4.733-1.819-9.293-2.821-14.242-5.864-.524-.323-1.227-.614-1.703-.697-5.84-1.027-11.756-4.426-17.297-8.351-4.803-3.404-10.24-6.542-14.024-10.49.19-.638 3.877 1.783 1.444-.706-1.205-1.232-2.836-2.492-4.424-3.598-12.366-8.627-24.712-17.277-37.174-25.807-14.803-10.132-29.735-20.134-44.576-30.229-11.402-7.757-22.75-15.568-34.114-23.363-.657-.452-1.59-.97-1.374-1.483zm137.63 99.318c-3.833.481-7.272-1.767-11.116-4.32-10.37-6.888-20.331-14.205-30.948-20.846-5.704-3.568-10.958-7.638-16.364-12.002 2-.268 3.875 1.218 5.488 2.29 6.187 4.112 12.306 8.302 18.472 12.438 6.28 4.213 12.283 8.573 19.18 12.224 5.09 2.692 10.36 6.257 15.287 10.216zm-70.353-45.962c-19.623-12.285-38.764-25.046-57.051-38.768 5.429 1.917 9.534 6.015 14.347 8.944 5.028 3.058 9.869 6.546 14.64 9.97 4.636 3.329 9.598 6.21 14.27 9.444 4.783 3.313 9.615 6.619 13.794 10.41zm-14.145 4.127c-17.385-10.68-33.585-22.59-50.38-33.864 17.339 10.699 33.778 22.397 50.38 33.864zm-109.08-72.741c5.566 2.99 11.137 5.847 15.821 9.944-5.633-2.812-10.947-6.115-15.82-9.944zm3.918-12.763c-5.502-2.862-10.147-6.15-14.922-9.942 6.73 3.292 12.213 6.928 14.922 9.942z" fill="#A498E4"/></g></svg>