<svg width="360" height="360" xmlns="http://www.w3.org/2000/svg"><path d="M273.737 167.348c-.198-.364-.05-.5-.038-.785.235.167.717-.112.724.401-.124.223-.383.297-.686.384zm17.522-7.267c-.157-.714-.33-1.478-.156-2.016.59-.061.734.928 1.007 1.555-.158.263-.404.387-.85.461zm-.923-.204c-.293-.154-.66-.564-.416-.872.59-.408.51.33.933.208.203.418-.573.323-.517.664zm5.912-3.947c-.448-.564-.256-.895-.815-1.843.935.01 2.014-.231 2.326.856-.832.1-.63.804-1.51.987zm-10.373-1.207c-.076 1.15.754.651 1.065 1.17.833 2.623-1.425 3.791-3.337 2.778-.472-1.08.059-1.492.076-2.277 1.981 1.253.842-1.022 2.196-1.671zm-11.76 4.676c-.395-.708.165-.995-.247-1.76l1.483-.426c.994 1.23.211 2.529-1.235 2.186zm18.96-7.368c-.289.132-.398-.084-.614-.022-.036-.78-.298-1.692.411-1.994.266.763-.344 1.086.204 2.016zm-2.617-5.032c.476-.136.754.18 1.079.335.253.72-.608.818-.311 1.526-.617-.517-.26-1.065-.768-1.86zm-21.33 6.972c.842-.242 1.426 1.232 1.752-.065.539.01.624 1.244.435 1.517-.829.292-.724-1.215-1.883-.39l-.305-1.062zm18.274-5.966c1.109.181.66-.403 1.552-.73.401.17.61.895.733 1.573-.39.112-.716.205-.706.488-1.004.43-1.13-.747-1.58-1.331zm6.163-.945l.26.906c-.42.167-.748.168-.958.088.117-.407.136-.832.698-.994zm-12.11 3.644c-.344-.553.107-.926.704-1.22.758-.38.505.466 1.089.34-.247.437-1.4.523-1.792.88zm13.201-13.97c1.716 1.103-1.556 1.51-1.032 2.821 1.59.408.959 2.317 1.873 3.45.61-.44.81-1.03 1.952-1.157-.568 1.359 1.69 2.04 1.039 3.623-1.001.62-2.351-1.52-2.322-.132-.94-.196-.745-1.315-.188-1.94-2.38.949-3.802-1.7-6.41-1.55l-.74-2.58c-.764.418-.981.946-1.745 1.364-.486-.924-.03-1.387-.327-2.166.782-.357 2.694 1.687 2.385-.418.698-.133.808.765 1.658.389.146 1.021.544 1.638 1.126 1.87.93-.865-1.352-2.403-.127-2.755 1.018-.557.607 1.09 1.456.713.37-.505.707-1.133 1.402-1.532zm-13.796 9.087c-.98-.454.584-.434-.11-1.372-.492-.728-.88.386-1.44.413.691-.8-.39-1.36-.084-2.516 1.594-.123 2.919.3 4.37.418.696-.534.96-1.345 2.018-1.113.681 1.141-.616 1.312-1.597 1.594-.722.942.145 1.496.673 2.347-1.012.424-1.424 1.21-2.225.638-.1-.84.448-1.399-.15-2.497l-.785.225c-1.024.628.835 1.432-.67 1.863zm-10.225-.342c.441.644.963-1.118 1.66-.477.158 1.147.944 1.202 1.023 2.372-.554.159-.796.509-.782.856-.8-.402-2.284.093-3.005-.331-.594-2.074-1.599-3.188-.705-4.847.977.42 2.144 1.208 1.809 2.427zm-9.8 4.562c-.657-.413-1.226-1.455-.177-2.03.031.266.143.343.282.358.203.708-.363.925-.104 1.672zm21.321-10.665c-.368.185.231.806-.083 1.015.776.094.851-1.275.083-1.015zm-1.1-5.316c-1.097-.118.195 1.118-.473 1.186-1.37.022-.64-1.36-1.298-2.78.307-.458 1.322-.625 1.834-1.02.327 1.575 1.097.118 1.789.785.195 1.119-.384 1.717-.592 2.518.007.678.594.325.741.839.457-1.244 1.395-.153 2.161.121-.38.418-.686.877-1.29 1.174-.525-.962-1.682-.198-2.557.239-.46-1.166-.581-2.244-.315-3.062zm-12.469 1.4c.572-.711.884-.116 1.557-.72.24.342.573.52.83.926.673-.604.666-.876 1.604-.802.29 1.011.413 1.934-.564 2.214.3.804.996 1.015 1.203 1.982-.862-.3-1.343.728-2.119-.008-.18-.632-.427-1.246.141-1.478-.887-.635-1.952-1.15-2.652-2.114zm-9.681 2.014c-.53.108-.775-.254-1.02-.616.255-.42.586-.082.998-.113.135.307-.113.421.022.729zm-54.914 15.928l-.26-.906c.388-.158.789-.272 1.011-.103-.101.403-.085.912-.75 1.01zm86.462-26.04c.007.23.153.329.33.325.106.576-1.06.63-1.701.861-.325-.514-.263-.298-.26-.906.347.18 1.03-.109 1.63-.28zm-43.921 11.09l-.563.162c-.055-.358-.179-.79.352-.895l.21.734zm38.732-12.13c-1.854.572-1.749.127-3.1.556.789-.767 3.636-2.207 4.75-1.57-1.092-.02-1.6.375-1.65 1.013zm-2.409-2.995c.316-.044.476.19.557.634-.42.167-.705.155-.958.088-.21-.407.457-.365.401-.722zm-1.515-.138c.388-.316.494.471.825.376-.095.64.03 1.49-.578 1.597-.271-.808-.177-1.312-.247-1.973zm-4.638-1.625c.305 1.063 1.686.502 2.036 1.497-.931-.335-.96-.436-1.84.309-.35-.776-.675-1.011-.196-1.806zm-6.96 3.54c-.635.346-.842-.535-.61-.846.34-.097.626-.057.807.095.364.468-.56.284-.197.751zm-3.77.659c.463-.18.68.085.772.572-.303.087-.562.161-.513.334-.6.032-.074-.586-.26-.906zm-11.335.917c-.976-.463.426-2.104-.94-1.811.685.596-.303 1.721.94 1.81zm-50.72 10.289c-1.683-.364-1.076-2.654-.859-3.915.505-.074.902.024 1.216.568.16 1.294-.266 2.193-.357 3.347zm6.666-3.98l.26.906c-.197-.037-.352-.086-.611-.012-.013-.37-.18-.788.351-.894zm67.304-18.414c-.305.087-.408.303-.364.6-.37.293-.436-.37-.654-.557-.307-.78.2-.74.112-1.335.284.415.584.887.906 1.292zm-77.306 21.812c-.095-1.115.03-3.027-.564-4-.241.722-.523 3.496.564 4zm16.56-6.077c.28-.999-.801-1.178-.551-1.923l1.808-.518c.134 1.185-.307 1.984-1.257 2.44zm29.235-7.95c-1.046-.38-.594-2.397-1.274-3.788.998-.437.58 2.024 1.235 1.534.154.862-.262 1.208.039 2.255zm19.669-7.794c-1.032.156.112 1.369.377.5-.229.018-.303-.24-.377-.5zm-28.051 6.785c-.005 1.406-1.005 2.188-2.318 2.73-.21-1.014-.88-1.648-1.812-2.62 1.002-.204.501-1.382 1.698-1.478.41.295.63 1.059.849 1.822 1.045-.052.805-.892 1.583-.454zm-34.712 8.378c-.454.083-.75-.112-.885-.727.441-.266.565.165 1.006-.102 0 .28-.121.549-.12.829zm-1.94-2.12c.302.735.265 1.239.284 1.78l-.67.193c-.318-.95-.502-1.115-.384-1.97.294-.085.45.144.77-.003zm46.712-14.864c-.497-.017.091-.542-.262-.917.58-.404.505.331.922.212.212.455-.679.353-.66.705zm3.474-25.836c-1.07.383-.91-1.003-2.082-.549.06-1.362 2.05-1.003 2.367.219 1.08-.09 2.012.036 2.943.16.17.592-.362.937.06 1.585-1.277-.163-2.521-.444-3.288-1.415zm-27.645 32.806c-.897.257-1.311.08-1.606-.314.567-.348 1.069-.713 1.865-.683.24.411-.18.642-.26.997zm-26.48 3.464c.43-.886 2.3-.799 2.61-.194.35-.447.682-.958 1.684-1.038-.14.941.194.915.533 1.857-.469.273-.53.776-.772 1.123-.776.153-1.15-.433-1.522-1.02-.566.648-.399 1.71-.639 2.54-.857.108-1.204-.625-1.775-.946-.365-.797 1.13-1.78-.119-2.322zm66.355-18.097l.161.561c-.364.198-.556.02-.785.038-.055-.357.18-.518.624-.599zm-7.221-.366c.36.694-.188.852.157 1.489-.844-.494-.57.838-1.566.756.003-.554.321-.951-.088-1.815.55-.526.682-.257 1.497-.43zm-43.932 9.506c.94.648 1.616 2.217.953 3.324-1.632-.167-2.911-1.21-4.084-2.144-.415-.657.408-.68.682-1.041.753-.005 1.2.502 2.449-.139zm-13.034 5.01c-.588-.705.515-1.022-.23-2.01.377-.162.514.18.757.493.082.687-.073 1.223-.527 1.517zm-10.76 1.996c-.361.172-.644.184-.868-.025-.383-1.052-.337-1.75.324-1.87.257.61.7 1.303.543 1.895zm9.795-5.82c-.054-.406.246-1.333-.242-2.596.507-.426.609-.946 1.575-1.083.646.937-.906 1.663.351 3.196-.8.72-.795 2.051-1.9 2.579-.551-.824-1.215-1.826-3.037-1.163-.042-1.461-.97-1.195-1.684-1.27l-.409-1.426c1.001.203 1.724 1.188 2.98.968-.534-.548-1.068-1.096-1.247-2.377.31-.019.381.452.532.759.563-.231.839-.802 1.452-.416.47 1.198-.018 1.688-.43 2.227.535.548.913 1.21 2.059.602zm45.752-11.599c-.384-.885.335-.807-.149-1.735.62.036 1.067.832 1.07 1.756-.384.181-.663.119-.92-.02zm-29.56 4.796c-.254.26-.447.595-.79.833-.162-.42-.172-.744-.12-.992.38-.11.581.16.91.159zm-29.469 8.288c-.21.489-1.147.635-1.47.972-.355-.51-1.002-1.303-.55-1.922.936-.147.599 1.847 2.02.95zm26.05-9.868c-1.063.79-1.494.637-2.026 1.483-1.22-.205-2.253-.88-2.281-2.328.073-.645 2-.227 1.178-1.517 1.152.64 2.615.568 3.13 2.362zm-13.321 1.742c-.488-.752.441-1.063.115-1.728 1.395-.579 1.934.828 1.547 1.609-.792.316-1.074.04-1.662.12zm36.581-9.588c-.26-1.655-.28-2.473-1.268-3.425 1.431.249 2.486 1.182 3.01 3.256-.64.265-1.302.455-1.742.17zm-18.637 2.445c.347.394.81.543.986 1.48-.104.453-.58.59-.908.26-.268-.769.19-.97-.078-1.74zm-26.495 8.886c-.093-.487.05-.808.525-.945.222.123.297.382.383.684l-.908.26zm15.58-6.758c.167.419.507.461.26.906-.557.346-.526-.363-.897-.35.056-.296.29-.457.637-.556zm28.08-8.838c-.413.358-.721-.391-.31-.43-.173-.11-.476-.023-.517-.33l.562-.161c.159.553.333.343.265.921zm-36.814 9.058c.924-.19 1.257-.735 1.019-1.565.437.549 1.231.396 1.693.788.045.886-.566 1.436-.502 2.392-2.086-.451-2.176.698-3.989 1.443-.372-.567-.948-.627-1.097-1.633.76-.518 1.182-1.239.845-2.416 1.102-.54 1.624.06 2.031.991zm-10.34 1.742c-.68-.251-1.223-1.086-.872-1.83.4.033.625.514.958.765.171.446-.11.676-.086 1.065zm4.37-.99c-.22.482-1.774 1.067-1.996.292.212-.76.208-1.527 1.268-1.831.716.494.09.813.728 1.538zM240.507 88.3c.54-.237.66.18.79.635-.346.099-.378.313-.735.374-.109-.378-.217-.757-.055-1.009zm-57.065 17.272c-.312-1.09-.397-1.966.256-2.154.11.385.22.77.393.79.09.459-.047.706-.468.688.035.268.13.31.245.277.036.267-.252.28-.426.4zm33.425-11.91c.507-.145.688.008 1.184-.175.185.644-.447 1.071-1.673 1.34-.353-.513.842-.65.489-1.165zm-20.804 4.667c.859-.247-.016-1.406.463-1.896 1.236-.284 2.14.162 2.619 1.294-.71.768-1.115 1.519-1.23 2.469-1.148.047-1.75-.698-3.25.015-.37-1.023-.2-1.777-.209-2.62.7.01.96.641 1.607.738zm.673-3.825l.16.56-.96.276c.065-.206.03-.476-.057-.778.115-.033.138.194.252.302.27-.078.285-.315.605-.36zm23.766-9.388c.073.4-.56.348-.487.747-.279.033-.442-.247-.515-.646.369-.153.75-.262 1.002-.1zm-36.31 11.924c.183-1.63-.61-.542-1.349-1.763-.568.736-1.462.562-1.98.568 1.304-.661-.137-2.971 1.422-3.418.433.377 1.071.338 1.18 1.167.78-.224.775-1.37 1.723-.781.557 1.488-1.345.744-1.553 1.377.165 1.027 1.15.387 1.315 1.414-.483.354.279 1.426-.757 1.436zm44.759-16.48c.447-.127.382.959.591 1.314-1.055.065-1.27-1.06-2.012.102l-.408-1.425c.966-.751 1.644 1.427 1.829.01zm-10.914 2.972c.234 1.1 1.044 2.516.63 3.322-1.842.322-2.502-1.137-4.119-1.155-.6-2.094 2.117-2.736 3.489-2.167zm-11.333 1.137c.654.87 1.074 1.807.819 2.856-.844.405-1.21-.873-1.954-.822l-.733-2.555c.772.754 1.081 1.479 1.868.521zm25.138-6.759c.286.772.983.728 1.289 1.572-1.954-.294-4.28-2.111-2.927-4.363.815-.078.518.007 1.25-.358.145.502.484.56.648 1.134.498-.065.873-.328.768-.919.882.601 1.119 2.552 1.503 3.218-1.012.29-1.555-.253-1.92-1.08-.338.175-.274.622-.61.796zm-51.034 13.363c.837-1.41-.529-2.385.272-3.654.84-.046 1.119.654 1.868.83 1.041-.43.87-1.03 2.011-.838.08.823.775 2.704.583 3.93-1.512-.672-2.904-.923-4.734-.268zm0 1.37l-.39.112c.006-.142-.136-.148-.222-.123l-.112-.388c.186-.007.161-.093.124-.222l.39-.112c.005.185.092.16.222.123l.11.388c-.141-.006-.147.136-.123.222zm12.526-3.964c-.3-1.043-2.4-2.558-2.41-1.426-1.537-2.806 2.903-2.667 3.061.675.777-.082.392-.96.99-1.201-.335-.47-.73-.92-1.022-1.472 1.687-.625 2.363 2.428 2.287 3.79-.745.426-1.061.022-1.616.181-.376-2.009-.549-.054-1.29-.547zm45.342-18.084c-1.019-.125-.856 1.914-.069 2.046.145-.638.322-1.165.069-2.046zm-11.218 2.544c-1.802.452-.579.947-.14 1.666-2.35-.106-1.79-2.737-.445-3.708 1.711-.231 3.686 1.804 2.602 3.415-.547-.559-1.94-.029-2.017-1.373zm-49.076 13.28c.246.022.407.303.506.648-.135.226-.504.332-.91.448-.21-.593.516-.568.404-1.096zm3.246-3.73c.112.388.717-.112.957-.088.142-.648-1.284-.566-.957.088zm31.23-15.078c.198.363.05.5.037.783-.512.334-.47-.332-.556-.634l.52-.15zm-31.884 8.679l-.543.156c-.39-2.938-2.065-2-2.042-4.598.46-.285.683.49.904 1.417-.01-1.293 1.024-.37 1.456.193.034.905-.428 1.342.225 2.832zm3.95-9.209c-.915-.063-3.823-.245-3.93.802 1.475-.545 3.316.187 3.93-.802zm123.013 95.77c-.483-.554 1.714-1.368.606-1.559.913-.77 1.516.766 3.101.08-.265.77-1.564 1.327-2.874 1.841-.223-.213-.685-.127-.833-.362zm10.18-2.363l-1.759.505c-.359-.796-.466-1.857-1.145-1.02-.17-.594-1.78-2.316-1.021-3.56 1.029.154 1.4.304 2.39-.365-.187.953.495 1.271 1.455 1.188.59 1.372.577 2.468.08 3.252zm-31.454-29.985c.256-.459.972-.664 1.709-.798 1.165 1.36 2.494 2.212 4.028 2.696.348.671-1.566 1.297-.512 1.457-1.371.085-4.06-1.455-5.225-3.355zm-16.827-14.223c.766-.46.606.669 1.292.412-.24.61-2.202.51-1.325 1.643-1.021-.429.224-1.388.033-2.055zm-40.6-23.189c-.468.135.005 1.141-.155 1.544-.355-.112-.501-.784-.738-1.288.279-.15.255-.715.742-.783.014.852.557.34.874.32.297.557.774.778.567 1.337-.619.249-.93-.519-1.29-1.13zm90.58 61.043c-.44-.606-.9-1.28-1.383-1.8.325-1.193 1.366-1.052 2.495-1.302.762-.366-1.105-1.295-.239-1.764 2.04.368 1.448 2.955 1.625 4.736-1.168.115-1.293-1.021-2.498.13zm-85.718-66.998c-.143-.78-.547-.79-.633-1.65.706.367.351-.731.926-.265l.418 1.459c-.404-.01-.2.562-.71.456z" fill="#6EB0FC" fill-rule="evenodd"/></svg>