<svg width="1328" height="800" xmlns="http://www.w3.org/2000/svg"><defs><filter x="-17.3%" y="-28.7%" width="134.6%" height="157.4%" filterUnits="objectBoundingBox" id="a"><feOffset dy="32" in="SourceAlpha" result="shadowOffsetOuter1"/><feGaussianBlur stdDeviation="44" in="shadowOffsetOuter1" result="shadowBlurOuter1"/><feColorMatrix values="0 0 0 0 0.168627451 0 0 0 0 0.168627451 0 0 0 0 0.321568627 0 0 0 0.24 0" in="shadowBlurOuter1" result="shadowMatrixOuter1"/><feMerge><feMergeNode in="shadowMatrixOuter1"/><feMergeNode in="SourceGraphic"/></feMerge></filter><linearGradient x1="100%" y1="0%" x2="65.061%" y2="86.022%" id="b"><stop stop-color="#FFF" offset="0%"/><stop stop-color="#F0F4FD" offset="100%"/></linearGradient><linearGradient x1="0%" y1="0%" x2="50%" y2="81.394%" id="c"><stop stop-color="#F0F4FD" offset="0%"/><stop stop-color="#D9E0F0" offset="100%"/></linearGradient></defs><g filter="url(#a)" transform="translate(0 -.361)" fill="none" fill-rule="evenodd"><path d="M650.326 628.915c-2.862-1.582-5.687-3.27-8.632-4.677-4.634-2.214-8.882-5.502-13.982-6.522-.383-.076-.972-.347-1.324-.592-3.963-2.758-8.596-3.922-12.803-6.094-1.642-.849-2.689-1.187-1.886.308.435.81-.955.33-1.802-.04-3.31-1.45-6.483-3.162-9.692-4.82-6.557-3.389-13.067-6.887-19.91-9.696-2.27-.932-4.44-2.087-6.613-3.254a6033.266 6033.266 0 0 0-25.113-13.42 7880.214 7880.214 0 0 0-32.176-17.009c-2.957-1.552-6.02-2.952-9.039-4.424-.12.401.613.714 1.138.998 9.062 4.914 18.115 9.84 27.203 14.723 11.83 6.354 23.719 12.63 35.524 19.015 9.936 5.375 19.797 10.85 29.67 16.304 1.267.7 2.579 1.51 3.571 2.334 2.003 1.666-.929.152-1.023.646 3.12 2.647 7.412 4.557 11.25 6.715 4.43 2.488 9.099 4.553 13.527 4.85.363.024.907.185 1.323.384 3.92 1.877 7.395 2.259 11.06 3.236 3.247.866 6.132.942 9.563 2.253.58.22 1.296.413 1.428.086.168-.419-.559-.915-1.262-1.304m-44.734-13.355c-5.546-2.22-10.462-5.065-15.578-7.771-5.024-2.658-10.015-5.362-15.053-8-1.313-.686-2.858-1.67-4.365-1.292 4.46 2.897 8.781 5.581 13.41 7.841 8.612 4.206 16.777 8.987 25.219 13.405 3.13 1.638 5.927 3.074 8.818 2.376-4.064-2.626-8.36-4.92-12.451-6.559m-67.239-35.08c-3.742-2.22-7.54-4.484-11.482-6.331-3.775-1.772-6.999-4.704-11.251-5.47 14.347 9.033 29.36 17.067 44.748 24.593-3.28-2.647-7.07-4.75-10.823-6.868-3.664-2.066-7.554-3.77-11.192-5.925" opacity=".72" fill="#FF88E4"/><g fill-rule="nonzero"><path fill="url(#b)" d="M88.344.794v176l-88-63.798z" transform="rotate(-137 517.2 218.175)"/><path fill="url(#c)" d="M87.715 177.043v-175l88 111.163z" transform="rotate(-137 517.2 218.175)"/></g></g></svg>