<svg width="1440" height="670" xmlns="http://www.w3.org/2000/svg" xmlns:xlink="http://www.w3.org/1999/xlink"><defs><radialGradient cy="0%" fx="50%" fy="0%" r="100%" id="c"><stop stop-color="#FFF" offset="0%"/><stop stop-color="#F0F4FD" offset="56.941%"/><stop stop-color="#D9E0F0" offset="99.282%"/></radialGradient><circle id="a" cx="1225" cy="541" r="16"/><filter x="-462.5%" y="-362.5%" width="1025%" height="1025%" filterUnits="objectBoundingBox" id="b"><feOffset dy="32" in="SourceAlpha" result="shadowOffsetOuter1"/><feGaussianBlur stdDeviation="44" in="shadowOffsetOuter1" result="shadowBlurOuter1"/><feColorMatrix values="0 0 0 0 0.168627451 0 0 0 0 0.168627451 0 0 0 0 0.321568627 0 0 0 0.24 0" in="shadowBlurOuter1"/></filter></defs><g transform="translate(53)" fill="none" fill-rule="evenodd"><circle fill-opacity=".64" fill="#D9E0F0" cx="1279" cy="515" r="7"/><path d="M1242.53 482.652c10.262-2.493 19.26-6.68 28.192-10.912 3.751-1.78 9.12-3.95 7.274-7.653-1.147-2.304-5.544-1.762-8.926.157-9.079 5.155-19.39 9.113-26.54 18.408" fill-opacity=".64" fill="#3C95FB"/><circle fill="#FFDDF7" cx="61" cy="44" r="32"/><path d="M55.88 24.43a27.125 27.125 0 0 0-3.64-10.794 28.213 28.213 0 0 0-7.797-8.447c-.143-.102-.282-.211-.43-.308l-.443-.29c-.296-.192-.587-.394-.895-.567-.305-.179-.609-.361-.916-.536l-.94-.494a29.172 29.172 0 0 0-3.934-1.622 30.68 30.68 0 0 0-4.15-1.006A31.705 31.705 0 0 0 28.475 0a31.59 31.59 0 0 0-4.277.272 31.184 31.184 0 0 0-4.194.912c-1.371.417-2.71.933-4.01 1.539a28.805 28.805 0 0 0-3.732 2.123c-.322.227-.655.439-.967.678l-.939.717-.903.76c-.298.259-.58.533-.87.8a28.46 28.46 0 0 0-3.129 3.531c-.228.32-.468.634-.686.96l-.646.99-.597 1.018c-.199.34-.369.695-.554 1.042a28.19 28.19 0 0 0-1.765 4.37c-2.143 6.92-1.39 14.619 1.954 21.026.516 1.024 1.128 1.996 1.765 2.948l.504.697.253.348.268.336.537.671c.184.22.378.432.566.648.37.438.78.84 1.178 1.255.195.21.414.397.62.596.211.195.413.4.632.585.44.37.863.759 1.324 1.103l.68.53.704.5c.43.32.892.592 1.34.884.224.15.462.273.694.408l.699.397.718.363c.24.119.476.247.724.35.492.214.976.45 1.481.632a29.442 29.442 0 0 0 6.207 1.68c.344.05.69.09 1.035.134.172.02.345.046.518.062l.52.039c.347.022.693.06 1.04.068l1.042.024c.174.007.348.004.521-.003l.52-.014c.348-.01.695-.015 1.041-.05l1.039-.082 1.033-.135c1.372-.204 2.737-.48 4.06-.893 1.325-.404 2.628-.884 3.871-1.487a27.282 27.282 0 0 0 8.383-6.164 26.6 26.6 0 0 0 5.347-8.667 30.005 30.005 0 0 0 1.293-4.437c.308-1.508.504-3.038.505-4.546a3.685 3.685 0 0 0-.005-.408 8.99 8.99 0 0 0-.024-.346 3.43 3.43 0 0 0-.077-.506c-.066-.26-.159-.364-.286-.34-.127.024-.311.379-.474.855-.15.478-.338 1.072-.404 1.607a31.191 31.191 0 0 1-.976 4.285c-.115.35-.213.706-.335 1.055-.126.348-.248.699-.369 1.052-.139.346-.275.695-.408 1.047-.14.35-.297.695-.44 1.049-1.455 3.4-3.736 6.498-6.592 8.98a27.053 27.053 0 0 1-7.912 4.775 27.179 27.179 0 0 1-4.997 1.407c-1.712.302-3.47.422-5.238.318l-1.598-.085a24.407 24.407 0 0 1-4.91-.91c-.268-.068-.528-.159-.79-.246l-.785-.262-.77-.3-.385-.15c-.128-.052-.253-.11-.379-.166l-.754-.337c-.25-.116-.493-.247-.74-.37-.496-.239-.968-.523-1.448-.794-.242-.13-.467-.29-.701-.434-.23-.15-.469-.29-.693-.45-.446-.32-.907-.623-1.333-.971-.216-.17-.435-.337-.648-.51l-.625-.538-.312-.269-.3-.283-.598-.567-.595-.615-.298-.308-.284-.32-.566-.643-.537-.666-.269-.334-.253-.345-.505-.691-.472-.714-.236-.358-.218-.367-.436-.737-.4-.756-.2-.379c-.063-.128-.121-.258-.182-.387l-.36-.776c-.111-.263-.215-.529-.322-.793l-.16-.397c-.052-.132-.094-.269-.142-.403l-.277-.809c-.086-.271-.159-.547-.238-.82l-.139-.484c-.042-.161-.078-.324-.118-.486-.076-.324-.166-.645-.233-.969l-.197-.973a6.54 6.54 0 0 1-.086-.488l-.075-.49-.076-.49c-.024-.163-.036-.328-.054-.492-.032-.329-.07-.658-.095-.989-.026-.662-.07-1.328-.037-2a58.33 58.33 0 0 1 .322-4.711c.055-.425.16-.925.27-1.388.341-1.305.78-2.583 1.297-3.83a30.688 30.688 0 0 1 1.838-3.608c.135-.217.265-.435.394-.653.066-.108.127-.22.196-.326l.21-.318c.14-.211.282-.423.429-.633.148-.21.315-.407.483-.608.732-.882 1.528-1.704 2.34-2.509.417-.39.822-.795 1.26-1.166.216-.188.424-.386.646-.568l.665-.55c1.219-.99 2.61-1.773 3.99-2.505a25.673 25.673 0 0 1 5.622-2.163c1.948-.505 3.954-.769 5.961-.84 4.63-.17 9.303.845 13.426 2.872 1.797.876 3.474 1.986 5.02 3.247 1.544 1.268 2.952 2.69 4.264 4.205.382.422.721.892 1.07 1.364.176.234.328.488.492.734.16.25.328.496.47.758l.443.778c.146.261.272.533.408.798.28.529.504 1.082.752 1.618a27.02 27.02 0 0 1 1.433 4.405c.35 1.504.58 3.036.658 4.577.024.268.03.535.052.814.021.28.055.572.107.893.044-1.248.048-2.352-.094-3.485" fill-opacity=".48" fill="#FF88E4"/><use fill="#000" filter="url(#b)" xlink:href="#a"/><use fill="url(#c)" xlink:href="#a"/></g></svg>