<svg width="360" height="360" xmlns="http://www.w3.org/2000/svg"><path d="M174.565 150.858c.23.884 1.213.151 1.13-.211-.541.069-.465-.01-1.13.211zm69.662-19.308l-.946.216c-.244.281-.601.414-1.297.567-.033-.827 2.005-1.111 2.243-.783zm20.817-25.31c.117.793.463.967.677 1.496l.723-.111c-.09-.812.39-.891.713-1.176.135.602.445 1.033.233 1.563.187-.869.527-1.864.084-2.412.368.496.291-.329.504-.61-.213-.209-1.75.251-.648.633-1.076-.345-1.359.816-2.286.617zm4.714-4.429c-.638.22-1.978.66-1.572 1.547.475-.59 1.362-.62 1.572-1.547zm1.949.011c.005 1.29-.978.382-1.47 1.254l.073.521c.093.003.18.018.184.244.372-.286.394-1.038.88-1.178.073.519.446.281.436 1.007.336-2.47 3.402-1.106 3.11-3.592-.608.552-.504.465-1.18.153.312 1.61-.487.399-.563 1.4-.195.023-.196-.44-.364-.483-.426.457-.28 1.058-1.106.674zm-.143-1.042c-.339-.293-1.298.028-1.217.954.27-.496 1.246-.06 1.217-.954zm4.883-1.697c-.035-.263-.302-.296-.296.038.184.007.36.034.36.486.874-.054 1.003-1.13 1.798-1.282-.125-.605-.287-1.111-.604-1.262-.173.769-.521 1.923-1.093.937.04.487.012.885-.165 1.083zm1.885-1.82c-.056-.318-.118-.616-.361-.492.053.77.433.767.484 1.538.646.046.191-1.833-.123-1.046zm-48.61 42.962c1.43-.233 2.305-1.069 3.79-1.237-1.093-.824-3.044.474-3.79 1.237zm-4.482 1.8c.314-.045 1.513.02 1.706-1.024-.559.48-3.303 1.25-1.706 1.024zm-66.86 17.82c-.273-.515-.58.164-.866.137 2.977-1.787 5.535-3.047 7.993-4.193l3.646-1.689 3.81-1.67c.337-.344-.114-.909-.045-1.134l2.695-1.189c.395 1.297.909 1.057 1.374 1.412.422.02-.583-1.101-.162-1.082-.247-.521-.547-.378-.85-.2 3.279-2.039 8.485-4.208 13.483-6.33-.099-.52.84-.145.371-.99 2.598.986 3.707-1.49 5.985-1.67-.58-.7.533-.053.656-1.075.336-.131.23.127.313.449 7.45-3.135 15.518-5.936 20.522-8.945 1.226.116 2.44-.165 3.737-1.342 2.444-.652 5.232-1.089 6.972-3.55.163.422.019.509-.142.581 1.202.028 3.088-.536 4.34-1.373.299-.115-.34-.598-.323-1.276.248-.225.988.085.904-.502.841.694-.784.242-.296 1.162 1.065.37 1.86-.556 2.57-1.466 4.422-.039 8.907-3.444 12.069-4.29.106-.744-.723-.372-.303-.746.26.047.224-.254.173-.572.56.082.103.787.551 1.233 2.507-1.387 3.756-1.543 5.359-3.224-.14 1.029.25-.028.523.443.417-.812.56-1.968 1.505-2.144.19.862-.803.686-1.035 1.524 1.963-.418 3.711-.606 5.406-3.375-.333-1.075-.805.526-.993-.625.832-1.128 1.526-1.715 2.585-1.256.012.287-.254.22-.2.563-.032-.455 1.527-.646 1.28-2.062.82.644 1.325.092 1.233-1.523.445.279 1.036.156 1.322.86.127-.257-.132-.622.312-.846-.752-1.097-1.105-.621-2.255-.185-.19.538.163.456.212 1.3-.661-.11-.273-.927-.937-1.19-1.084.45-.967 1.29-2.137 1.408-.013-1.911 1.415-1.513 2.197-1.95.15-.505.843-1.396.806-1.456.125-.583.35.225.27.756 1.314-.552 1.148-1.772 1.19-2.848.466.213.608.714.536 1.517 1.076-.884 3.063-.44 2.928-3.383.174.146.239.576.516.453.06-1.335 1.216.101 1.246-1.767.725 1.034 1.553-.367 2.142-.81l.178 1.306c.843-.382 1.45-1.084 2.187-1.611-.626-1.137-1.302.858-2.145.81 1.96-2.38 3.928-3.58 6.264-5.312-1.338 1.74-2.592 2.335-4.073 3.697.438.625.667-.67 1.07.127.705-1.309 2.642-2.738 3.338-2.269.316-1.502 1.668-1.743 2.843-2.95.583.466-.374.645-.332 1.095.143.867.623-.864.657.46-.691.142-.626.421-.958-.428.125 1.166-.39.237-.3 1.355-.305.157-.328-.345-.389-.754-.02.734.02 1.606-.625 1.127.215 1.514 1.457.37 1.462-.42.791.234 1.702.09 2.332-.775.33.004.39.626.436 1.279.013-.747 1.297.607 1.056 1.479 1.051.87 1.202.372 2.056 1.11-.381.748.162.311-.166 1.34.197.733.673.82 1.013 1.218.22 1.143-.372 1.125-.409 1.897.632-.04-.093 1.212.807.71-.159.672-.572 1.096.127 1.312.204.974-.5.63-.453 1.373.11.922.527 1.13.636 2.052.12.625-.208.597-.017 1.326-2.228 3.566-5.16 6.363-8.303 8.298-2.442 1.558-4.957 3.126-7.524 4.598-2.562 1.51-5.164 2.977-7.803 4.217-3.187 1.54-6.89 3.04-10.232 4.226l-7.76 2.943c-2.367.952-4.607 1.85-6.905 2.773-4.58 1.858-9.405 3.72-15.95 6.228-5.257 2.007-11.268 5.23-16.78 6.637-2.537.628.25-.59.734-.798 5.282-2.323 9.875-3.742 15.165-6.413-.753-.163-2.012.252-2.756.811 4.115-2.99 9.955-4.42 14.667-6.194.003.78-.434.34-.937.78 2.027.27 3.14-1.356 5.41-1.62-.871-1.01-1.415.482-2.737.398-.217.033-.479.253-.599-.12l.535-.136c2.07-1.26 4.322-2.067 6.498-2.958 2.178-.888 4.307-1.745 6.211-2.883-3.001.709-6.548 1.29-9.666 3.752.028-.247.054-.496-.123-.513-2.997 1.078-5.842 2.091-8.465 3.194 3.372-2.093 7.148-3.312 11.004-5.125-2.116-.132-3.998 1.427-6.562 1.824-.316-.047-.166.43-.078.833-1.935-.255-3.634.565-5.306 1.074-12.7 4.016-23.292 8.801-37.14 14.452-.574.238-1.17.335-1.93.742-.589.318-1.49-.004-2.123.251-1.619.641-2.789 2.734-4.7 1.627-.4.328-1.564.572-1.122.176 1.746-1.544 3.851-1.768 5.402-2.488 6.494-3.083 13.137-5.14 18.978-7.729-2.776.342-5.39 1.43-7.893 2.601-2.512 1.144-4.912 2.367-7.274 3.097-2.199.672-4.764 1.874-6.801 2.382-9.488 2.125-17.236 8.69-26.965 10.724.182-.859.624-.959.766-1.268-1.402-.028-3.684 2.082-5.715 1.677 1.974-.832 3.023-1.39 4.996-2.495z" fill="#8A75F5" fill-rule="evenodd"/></svg>