<svg width="1056" height="688" viewBox="0 0 1056 688" xmlns="http://www.w3.org/2000/svg" xmlns:xlink="http://www.w3.org/1999/xlink"><title>Back</title><defs><path d="M722.806 269.21c-21.252 58.636-88.023 111.312-173.869-63.849-25.001-51.013-63.732 160.505-155.465 89.02 11.788-6.43-37.1-14.711-146.666-24.845 88.834 34.618 121.487 74.806 97.959 120.563 68.928 24.407 139.624 57.11 203.307 57.231h1.073c70.56-.272 132.416-40.924 173.491-177.794l.17-.327z" id="a"/></defs><g fill="none" fill-rule="evenodd"><use fill-opacity=".24" fill="#E2DDFE" transform="scale(-1 1) rotate(29 0 -1552.276)" xlink:href="#a"/><path stroke="#B8ABFD" stroke-width="2" fill="#FFF" d="M343 233h448v308H343z"/><path stroke="#E2DDFE" stroke-width="2" fill="#FFF" d="M412.364 120.965l395.88 98.704-86.608 347.366-395.88-98.704z"/><path d="M544.74 475.458a26.285 26.285 0 0 1 4.618-2.404c-2.513 1.637-4.826 3.564-7.619 4.8.996-.806 1.934-1.697 3-2.396m-1.29-2.9c-.555.379-1.03.835-1.708.878-1.119.07-2.18.606-3.22 1.179a3876.16 3876.16 0 0 0-11.796 6.535c-.269.149-.557.339-.712.12-.421-.592-1.038-.153-1.582.187-.873.546.3-.97-.72-.438-.776.405-1.551.754-2.293 1.27-1.539 1.073-3.145 2.007-4.92 1.996-.669-.004-1.209.37-1.757.753-4.39 3.057-9.077 5.602-13.577 8.476-4.559 2.912-9.254 5.6-13.894 8.378-4.752 2.844-9.32 5.961-14.412 8.24-6.963 3.115-13.53 7.249-20.048 11.396-.347.22-.848.353-.786 1.075 2.15-.633 3.966-2.197 6.286-3.198-.467.401-.687.585-.9.775-3.43 3.063-7.656 4.757-11.484 7.135-2.14 1.33-4.292 2.628-6.366 4.06-3.055 2.112-6.068 4.293-9.402 5.933-.405.2-.82.48-1.36.318l3.47-2.95c-1.328.659-2.531 1.435-3.604 2.454-.84.797-1.667 1.652-2.79 2.155-3.612 1.617-7.152 3.453-10.788 5.01-4.209 1.804-7.845 4.188-8.823 8.527-.026.114-.124.24-.208.352-1.097 1.471-1.066 2.848-1.05 4.254.03 2.716.954 5.152.487 8.032-.233 1.437-.214 2.806-.924 4.318-.648 1.381.189 2.464 1.807 2.858.759.185 2.396-.498 3.159-1.43.721-.88 1.581-1.82 1.904-2.742.569-1.62 1.88-2.543 3.318-3.5 2.41-1.604 5.01-2.865 7.373-4.566 5.069-3.65 10.493-6.731 15.73-10.113a90.761 90.761 0 0 1 5.928-3.51c3.376-1.833 6.73-3.727 10.073-5.615 2.625-1.483 5.261-3.029 7.899-4.444 4.565-2.45 9.02-5.112 13.467-7.759 5.191-3.09 10.59-5.835 15.408-9.642 2.4-1.897 5.33-3.05 7.912-4.827 2.657-1.83 5.64-3.171 8.415-4.887 4.158-2.57 8.501-4.848 12.121-8.203.415-.385.89-.482 1.363-.654 1.68-.608 3.177-1.651 4.352-2.889 1.29-1.357 2.789-2.392 4.313-3.393 3.467-2.28 7.063-4.365 10.484-6.706 5.647-3.862 11.597-7.131 17.474-10.55.63-.368 1.251-.738 1.986-.838 1.997-.272 3.91-1.016 5.723-2.296 5.04-3.558 9.825-7.404 14.593-11.276 4.65-3.777 9.356-7.496 14.04-11.237 1.16-.927 2.367-1.812 3.254-2.997-1.152.306-2.103 1.007-3.074 1.641-.996.652-1.974 1.323-3.067 1.783-2.686 1.13-5 3.224-7.817 4.022-.127.036-.255.149-.375.236-4.156 3.011-8.747 5.327-12.886 8.366-1.1.807-2.307 1.24-3.54 1.715-3.248 1.25-6.494 2.573-9.455 4.66-1.04.731-2.106 1.39-3.273 1.848-.82.321-1.58.773-2.337 1.255-4.39 2.798-8.478 5.99-12.481 9.25-4.034 3.284-8.371 6.156-12.693 8.988-5.515 3.613-11.11 7.107-16.595 10.777-2.528 1.69-4.992 3.542-7.636 4.977-2.263 1.228-4.524 2.437-6.663 3.873-2.904 1.949-5.929 3.674-8.903 5.486-2.317 1.41-4.674 2.813-7.272 3.854 1.487-2.694 4.41-3.757 6.896-5.544-1.005-.305-1.8-.126-2.604.295-1.7.892-3.525 1.639-5.05 2.758-3.803 2.792-8.113 4.595-11.97 7.25-.623.43-1.322.796-2.529 1.007 1.024-.692 1.636-1.1 2.242-1.517 3.804-2.612 7.929-4.617 11.83-7.056 2.326-1.453 4.632-2.947 6.986-4.357 4.38-2.626 8.716-5.333 13.082-7.986 3.362-2.044 6.538-4.406 9.9-6.413 5.357-3.196 10.452-6.797 15.765-10.062 5.176-3.18 10.165-6.693 15.245-10.048.418-.277.895-.463 1.344-.691-7.386 5.336-14.956 10.326-22.502 15.74.57.162.916.015 1.195-.2 2.366-1.822 5.083-3.032 7.539-4.71 4.536-3.098 9.117-6.134 13.67-9.211 3.323-2.248 6.633-4.516 9.94-6.787.743-.51 1.237-1.1.745-1.733-.43-.553-1.087-.315-1.777.108-3.792 2.322-7.713 4.411-11.389 6.942-1.468 1.01-2.91 2.061-4.4 3.037-7.083 4.636-14.092 9.384-21.236 13.93-3.945 2.511-7.86 5.079-11.86 7.494-1.454.878-2.908 1.88-4.55 2.474.003-.423.26-.594.494-.75 4.132-2.763 8.222-5.596 12.414-8.262 5.32-3.384 10.721-6.638 15.953-10.168 1.474-.994 2.847-2.135 4.311-3.144 4.212-2.902 8.451-5.767 12.673-8.655 1.837-1.257 3.605-2.624 5.666-3.491.527-.222 1.078-.494 1.39-1.297-1.838.262-3.178 1.373-4.56 2.313" fill="#B8ABFD"/></g></svg>