<svg width="360" height="360" xmlns="http://www.w3.org/2000/svg"><path d="M153.687 117.288c3.807-.747 7.26-2.11 9.996-5.194-1.547-1.585-2.48-.947-3.168-.452-2.37 1.707-4.571 3.73-6.828 5.646zm-6.101 2.161c1.235-1.112 2.334-2.163 2.863-4.77-1.696-.221-3.017 2.02-2.863 4.77zm57.871-38.288c3.535-1.3 6.77-3.259 10.49-4.13.085.88-.595.787-.983.98-3.444 1.716-6.075 4.747-9.283 6.833a4.023 4.023 0 0 0-1.496 1.782 3.067 3.067 0 0 1-1.62 1.608c-3.493 1.53-6.326 4.226-9.717 5.95-1.214.615-2.51 1.052-3.715 1.687-1.148.605-2.418.96-3.03 2.379-.239.547-.711.615-1.285.44-.565-.17-1.032.005-1.372.357-1.295 1.345-2.444 2.881-4.315 3.353-.346.089-.7.673-.284 1.256.929 1.298.399 1.77-.317 1.908-1.062.212-1.735 1.057-2.643 1.509-1.073.535-1.018.69.37 2.145-.141.152-.328.255-.404.452-.393 1.031-1.948-.622-2.333.993-.205.866-1.672 1.021-2.524 1.588-.847.562-1.733 1.096-2.693 1.433-4.402 1.547-8.21 4.224-12.324 6.317-3.146 1.595-6.357 3.092-9.396 4.88-1.434.84-2.806 1.923-3.803 3.434-.373.565-.777 1.036-1.507.935-1.916-.267-2.964.964-3.922 2.315-.636.893-1.242 1.615-2.604 1.282-.965-.236-1.9.183-2.358 1.044-1.03 1.948-2.51 3.133-4.602 3.419-.463.061-.665.443-.938.755-1.421 1.634-3.463 2.315-5.063 3.689-.63.54-1.84-.372-2.693.247-1.549 1.138-2.931 2.385-4.03 4.11-1.192 1.871-2.736 3.372-4.67 4.28-.805.383-1.617.71-2.025 1.666-.14.326-.462.785-.7.698-1.924-.714-1.941 1.029-2.54 2.163-.534 1.011-1.338 1.871-2.254 2.412-1.787 1.045-2.799 3.104-4.473 4.205-3.027 2.005-4.704 5.617-7.513 7.848-1.17.923-2.182 2.04-3.801 2.267-1.06.148-1.806.937-2.495 1.715-1.81 2.059-3.94 3.57-6.71 4.072-.913.166-1.624.705-2.39 1.138-.533.301-1.048.761-1.762.532-1.834-.59-3.07.196-4.505.698-2.211.773-4.893-.324-7.455-1.102-.694-.21-1.404-.61-2.1-.965-1.505-.764-1.67-1.2-.76-2.15 2.009-2.102 4.086-4.127 6.073-6.264 3.507-3.759 6.936-7.624 10.526-11.307 3.894-3.956 7.787-7.937 11.839-11.723 4.29-4.057 8.897-7.669 13.496-11.294a156.418 156.418 0 0 1 16.361-11.15c4.126-2.471 8.097-5.209 12.378-7.41 1.58-.812 3.143-1.582 5.291-1.063 1.327.323 2.665.099 3.597-.872.143-.149.313-.316.512-.332 2.13-.159 3.68-1.486 5.461-2.336a194.699 194.699 0 0 0 9.148-4.675c2.651-1.435 5.587-2.316 8.093-4.022.677-.46 1.466-.755 1.808-2.118l-3.355.837c.913-1.847 2.204-2.6 3.598-3.207 2.703-1.185 5.43-2.32 8.107-3.552 7.3-3.327 14.722-6.383 22.208-9.268 3.849-1.463 7.557-3.23 11.406-4.671z" fill="#FF88E4" fill-rule="evenodd"/></svg>